<svg xmlns="http://www.w3.org/2000/svg" preserveAspectRatio="xMidYMid" width="141" height="23" viewBox="0 0 141 23">
  <g id="motorcycles">
    <path d="M31.771,1.880 C31.615,2.242 31.376,2.778 31.170,3.118 C30.912,3.541 30.644,3.830 30.430,4.021 C29.986,4.420 29.618,4.638 29.235,4.788 C28.981,4.887 28.483,5.084 28.151,5.211 C28.070,5.242 26.730,5.745 26.457,5.833 C26.457,5.833 2.760,14.195 2.760,14.195 C2.206,14.386 1.558,14.758 1.558,15.475 C1.558,15.787 1.751,16.189 2.119,16.534 C2.119,16.534 8.103,22.112 8.103,22.112 C8.103,22.112 5.595,22.112 5.330,22.112 C5.280,21.952 5.187,21.724 5.089,21.555 C4.992,21.387 4.920,21.237 4.623,20.941 C4.386,20.704 4.146,20.458 4.063,20.375 C4.063,20.375 0.904,17.216 0.904,17.216 C0.321,16.632 0.001,15.887 0.001,15.201 C0.001,14.250 0.527,13.344 2.098,12.701 C2.098,12.701 24.125,3.747 24.125,3.747 C24.455,3.610 26.042,2.923 26.403,2.759 C26.754,2.599 27.819,2.121 28.210,1.945 C28.642,1.750 29.907,1.156 30.097,1.066 C30.985,0.640 32.083,0.117 32.307,-0.004 C32.366,-0.035 32.461,0.013 32.433,0.104 C32.306,0.515 32.086,1.150 31.771,1.880 ZM16.227,19.378 C16.227,19.378 20.643,22.112 20.643,22.112 C20.643,22.112 8.903,22.112 8.903,22.112 C8.903,22.112 7.096,20.438 7.096,20.438 C7.096,20.438 16.227,19.378 16.227,19.378 ZM15.416,18.727 C15.416,18.823 15.452,18.915 15.585,18.980 C15.585,18.980 6.727,20.098 6.727,20.098 C6.727,20.098 5.055,18.548 5.055,18.548 C5.055,18.548 24.292,14.944 24.292,14.944 C24.355,14.937 24.379,14.999 24.350,15.039 C24.251,15.174 24.003,15.473 23.888,15.607 C23.780,15.731 23.653,15.876 23.476,16.075 C23.226,16.353 22.836,16.748 22.722,16.852 C22.549,17.007 22.288,17.223 21.886,17.416 C21.447,17.627 21.063,17.695 20.895,17.719 C20.565,17.768 15.739,18.478 15.642,18.490 C15.503,18.507 15.416,18.618 15.416,18.727 ZM12.128,16.334 C11.982,16.364 11.927,16.489 11.927,16.577 C11.927,16.703 11.991,16.761 12.121,16.836 C12.121,16.836 4.731,18.249 4.731,18.249 C4.731,18.249 3.286,16.910 3.286,16.910 C3.286,16.910 27.302,10.729 27.302,10.729 C27.371,10.711 27.411,10.781 27.381,10.833 C27.273,11.026 27.011,11.455 26.906,11.606 C26.801,11.757 26.670,11.960 26.514,12.171 C26.305,12.452 26.022,12.816 25.864,12.994 C25.739,13.134 25.533,13.375 25.143,13.617 C24.729,13.875 24.318,13.972 24.151,14.004 C24.151,14.004 12.128,16.334 12.128,16.334 ZM9.138,14.498 C9.007,14.528 8.955,14.663 8.955,14.740 C8.955,14.838 9.017,14.931 9.132,14.985 C9.132,14.985 2.946,16.595 2.946,16.595 C2.946,16.595 2.441,16.123 2.441,16.123 C2.255,15.953 2.172,15.723 2.172,15.547 C2.172,15.092 2.528,14.881 3.074,14.702 C3.074,14.702 26.735,6.925 26.735,6.925 C27.062,6.816 27.657,6.612 27.816,6.556 C27.974,6.499 28.587,6.275 28.696,6.234 C29.136,6.067 29.553,5.908 29.980,5.728 C30.049,5.702 30.120,5.753 30.089,5.829 C30.039,5.949 29.765,6.535 29.689,6.674 C29.493,7.035 29.321,7.364 29.123,7.670 C28.950,7.939 28.692,8.341 28.539,8.526 C28.272,8.848 28.058,9.057 27.681,9.314 C27.213,9.633 26.778,9.749 26.598,9.803 C26.598,9.803 9.138,14.498 9.138,14.498 Z" id="path-1" style="fill: #e10025;" fill-rule="evenodd"/>
    <path d="M130.352,22.131 C130.352,22.131 130.352,20.514 130.352,20.514 C130.352,20.514 131.701,20.376 131.701,20.376 C132.220,20.320 132.818,20.025 132.343,19.301 C132.343,19.301 131.803,18.477 131.803,18.477 C131.803,18.477 124.479,18.477 124.479,18.477 C124.479,18.477 123.869,19.471 123.869,19.471 C123.591,19.928 123.890,20.320 124.452,20.380 C124.452,20.380 125.766,20.514 125.766,20.514 C125.766,20.514 125.766,22.131 125.766,22.131 C125.766,22.131 118.138,22.131 118.138,22.131 C118.138,22.131 118.138,20.515 118.138,20.515 C118.138,20.515 119.753,20.331 119.753,20.331 C120.223,20.269 120.427,19.956 120.592,19.688 C120.592,19.688 124.651,13.074 124.651,13.074 C124.995,12.516 124.569,12.103 124.273,12.069 C124.273,12.069 122.116,11.823 122.116,11.823 C122.116,11.823 122.116,10.207 122.116,10.207 C122.116,10.207 131.164,10.207 131.164,10.207 C131.750,10.207 132.036,10.395 132.431,11.001 C132.431,11.001 132.431,11.001 137.927,19.410 C138.162,19.770 138.400,20.257 139.154,20.346 C139.154,20.346 140.670,20.515 140.670,20.515 C140.670,20.515 140.670,22.131 140.670,22.131 C140.670,22.131 130.352,22.131 130.352,22.131 ZM128.029,12.697 C128.029,12.697 125.774,16.368 125.774,16.368 C125.774,16.368 130.427,16.368 130.427,16.368 C130.427,16.368 128.029,12.697 128.029,12.697 ZM110.533,22.129 C110.533,22.129 98.600,22.131 98.600,22.131 C98.600,22.131 98.600,20.515 98.600,20.515 C98.600,20.515 100.194,20.327 100.194,20.327 C100.909,20.246 100.987,19.648 100.987,19.265 C100.987,19.265 100.987,12.945 100.987,12.945 C100.987,12.248 100.655,12.033 100.154,11.971 C100.154,11.971 98.746,11.823 98.746,11.823 C98.746,11.823 98.746,10.207 98.746,10.207 C98.746,10.207 110.533,10.207 110.533,10.207 C114.803,10.207 118.315,11.929 118.315,16.168 C118.315,20.408 114.803,22.129 110.533,22.129 ZM109.666,12.491 C109.666,12.491 105.666,12.491 105.666,12.491 C105.666,12.491 105.666,19.847 105.666,19.847 C105.666,19.847 109.666,19.845 109.666,19.845 C112.025,19.845 112.826,18.725 112.826,16.168 C112.826,13.612 112.025,12.491 109.666,12.491 ZM95.245,13.074 C95.245,13.074 95.245,22.131 95.245,22.131 C90.998,22.131 89.794,22.131 89.501,22.131 C89.500,22.131 89.484,22.131 89.444,22.131 C88.765,22.131 88.520,22.007 88.235,21.624 C88.235,21.624 81.931,13.299 81.931,13.299 C81.931,13.299 81.931,19.265 81.931,19.265 C81.931,19.648 82.009,20.246 82.723,20.327 C82.723,20.327 84.318,20.515 84.318,20.515 C84.318,20.515 84.318,22.131 84.318,22.131 C84.318,22.131 76.690,22.131 76.690,22.131 C76.690,22.131 76.690,20.515 76.690,20.515 C76.690,20.515 78.285,20.327 78.285,20.327 C79.000,20.246 79.078,19.648 79.078,19.265 C79.078,19.265 79.078,13.074 79.078,13.074 C79.078,12.691 79.000,12.092 78.285,12.011 C78.285,12.011 76.690,11.823 76.690,11.823 C76.690,11.823 76.690,10.207 76.690,10.207 C76.690,10.207 84.447,10.207 84.879,10.207 C85.557,10.207 85.802,10.331 86.088,10.714 C86.088,10.714 92.392,19.039 92.392,19.039 C92.392,19.039 92.392,13.074 92.392,13.074 C92.392,12.691 92.314,12.092 91.599,12.011 C91.599,12.011 90.005,11.823 90.005,11.823 C90.005,11.823 90.005,10.207 90.005,10.207 C90.005,10.207 97.632,10.207 97.632,10.207 C97.632,10.207 97.632,11.823 97.632,11.823 C97.632,11.823 96.038,12.011 96.038,12.011 C95.323,12.092 95.245,12.691 95.245,13.074 ZM66.534,22.540 C58.779,22.540 56.777,19.143 56.777,16.169 C56.777,13.195 58.779,9.797 66.534,9.797 C74.288,9.797 76.290,13.195 76.290,16.169 C76.290,19.143 74.288,22.540 66.534,22.540 ZM66.534,12.069 C63.527,12.069 62.275,13.331 62.275,16.169 C62.275,19.007 63.527,20.268 66.534,20.268 C69.540,20.268 70.791,19.007 70.791,16.169 C70.791,13.331 69.540,12.069 66.534,12.069 ZM46.759,20.515 C46.759,20.515 48.354,20.327 48.354,20.327 C49.069,20.246 49.147,19.648 49.147,19.265 C49.147,19.265 49.147,17.376 49.147,17.376 C49.147,17.376 41.798,17.376 41.798,17.376 C41.798,17.376 41.798,19.265 41.798,19.265 C41.798,19.648 41.876,20.246 42.590,20.327 C42.590,20.327 44.185,20.515 44.185,20.515 C44.185,20.515 44.185,22.131 44.185,22.131 C44.185,22.131 34.638,22.131 34.638,22.131 C34.638,22.131 34.638,20.515 34.638,20.515 C34.638,20.515 36.233,20.327 36.233,20.327 C36.947,20.246 37.025,19.648 37.025,19.265 C37.025,19.265 37.025,13.074 37.025,13.074 C37.025,12.691 36.947,12.092 36.233,12.011 C36.233,12.011 34.638,11.823 34.638,11.823 C34.638,11.823 34.638,10.207 34.638,10.207 C34.638,10.207 44.185,10.207 44.185,10.207 C44.185,10.207 44.185,11.823 44.185,11.823 C44.185,11.823 42.590,12.011 42.590,12.011 C41.876,12.092 41.798,12.691 41.798,13.074 C41.798,13.074 41.798,14.962 41.798,14.962 C41.798,14.962 49.147,14.962 49.147,14.962 C49.147,14.962 49.147,13.074 49.147,13.074 C49.147,12.691 49.069,12.092 48.354,12.011 C48.354,12.011 46.759,11.823 46.759,11.823 C46.759,11.823 46.759,10.207 46.759,10.207 C46.759,10.207 56.306,10.207 56.306,10.207 C56.306,10.207 56.306,11.823 56.306,11.823 C56.306,11.823 54.712,12.011 54.712,12.011 C53.997,12.092 53.919,12.691 53.919,13.074 C53.919,13.074 53.919,19.265 53.919,19.265 C53.919,19.648 53.997,20.246 54.712,20.327 C54.712,20.327 56.306,20.515 56.306,20.515 C56.306,20.515 56.306,22.131 56.306,22.131 C56.306,22.131 46.759,22.131 46.759,22.131 C46.759,22.131 46.759,20.515 46.759,20.515 Z" id="path-2" style="fill: #e10025;" fill-rule="evenodd"/>
  </g>
</svg>
